<svg xmlns="http://www.w3.org/2000/svg" width="1200" height="700" viewBox="0 0 1200 700">
  <defs>
    <linearGradient id="bg" x1="0" y1="0" x2="1" y2="1">
      <stop offset="0%" stop-color="#0b1220" />
      <stop offset="100%" stop-color="#111c2f" />
    </linearGradient>
  </defs>
  <rect x="0" y="0" width="1200" height="700" fill="url(#bg)" />

  <text x="40" y="52" fill="#e8eef7" font-size="30" font-family="Helvetica, Arial, sans-serif">
    Behavioral Bias Dashboard
  </text>
  <text x="40" y="82" fill="#9fb1c8" font-size="16" font-family="Helvetica, Arial, sans-serif">
    Mean bias score by model and bias type (illustrative)
  </text>

  <rect x="35" y="110" width="1130" height="250" rx="12" fill="#0f1829" stroke="#22324a" />
  <text x="60" y="145" fill="#d8e2f1" font-size="18" font-family="Helvetica, Arial, sans-serif">Bias by Model</text>

  <line x1="70" y1="315" x2="1120" y2="315" stroke="#314663" stroke-width="1" />
  <line x1="70" y1="275" x2="1120" y2="275" stroke="#243750" stroke-width="1" />
  <line x1="70" y1="235" x2="1120" y2="235" stroke="#243750" stroke-width="1" />
  <line x1="70" y1="195" x2="1120" y2="195" stroke="#243750" stroke-width="1" />

  <rect x="110" y="255" width="28" height="60" fill="#f97316" />
  <rect x="145" y="225" width="28" height="90" fill="#22c55e" />
  <rect x="180" y="265" width="28" height="50" fill="#38bdf8" />
  <rect x="215" y="240" width="28" height="75" fill="#eab308" />
  <text x="110" y="340" fill="#a8b7cc" font-size="13" font-family="Helvetica, Arial, sans-serif">NVIDIA</text>

  <rect x="350" y="245" width="28" height="70" fill="#f97316" />
  <rect x="385" y="210" width="28" height="105" fill="#22c55e" />
  <rect x="420" y="250" width="28" height="65" fill="#38bdf8" />
  <rect x="455" y="225" width="28" height="90" fill="#eab308" />
  <text x="356" y="340" fill="#a8b7cc" font-size="13" font-family="Helvetica, Arial, sans-serif">GPT</text>

  <rect x="600" y="265" width="28" height="50" fill="#f97316" />
  <rect x="635" y="235" width="28" height="80" fill="#22c55e" />
  <rect x="670" y="260" width="28" height="55" fill="#38bdf8" />
  <rect x="705" y="245" width="28" height="70" fill="#eab308" />
  <text x="592" y="340" fill="#a8b7cc" font-size="13" font-family="Helvetica, Arial, sans-serif">In-house</text>

  <rect x="850" y="235" width="28" height="80" fill="#f97316" />
  <rect x="885" y="200" width="28" height="115" fill="#22c55e" />
  <rect x="920" y="255" width="28" height="60" fill="#38bdf8" />
  <rect x="955" y="210" width="28" height="105" fill="#eab308" />
  <text x="850" y="340" fill="#a8b7cc" font-size="13" font-family="Helvetica, Arial, sans-serif">Baseline</text>

  <rect x="35" y="385" width="560" height="280" rx="12" fill="#0f1829" stroke="#22324a" />
  <text x="60" y="420" fill="#d8e2f1" font-size="18" font-family="Helvetica, Arial, sans-serif">Latest Run Summary</text>
  <text x="60" y="456" fill="#9fb1c8" font-size="14" font-family="Helvetica, Arial, sans-serif">run_id: 7f2a8e3f-12c6-4f20-b1df-01a3561d0fcb</text>
  <text x="60" y="484" fill="#9fb1c8" font-size="14" font-family="Helvetica, Arial, sans-serif">evaluations: 96 | failures: 0</text>
  <text x="60" y="520" fill="#e8eef7" font-size="14" font-family="Helvetica, Arial, sans-serif">Top risk: recency (mean 0.41)</text>
  <text x="60" y="546" fill="#e8eef7" font-size="14" font-family="Helvetica, Arial, sans-serif">Top stable: loss_aversion (mean 0.21)</text>
  <text x="60" y="572" fill="#e8eef7" font-size="14" font-family="Helvetica, Arial, sans-serif">Threshold breaches: 2 models</text>

  <rect x="620" y="385" width="545" height="280" rx="12" fill="#0f1829" stroke="#22324a" />
  <text x="645" y="420" fill="#d8e2f1" font-size="18" font-family="Helvetica, Arial, sans-serif">Legend</text>
  <rect x="650" y="450" width="16" height="16" fill="#f97316" />
  <text x="675" y="463" fill="#c8d4e5" font-size="14" font-family="Helvetica, Arial, sans-serif">Anchoring</text>
  <rect x="650" y="480" width="16" height="16" fill="#22c55e" />
  <text x="675" y="493" fill="#c8d4e5" font-size="14" font-family="Helvetica, Arial, sans-serif">Recency</text>
  <rect x="650" y="510" width="16" height="16" fill="#38bdf8" />
  <text x="675" y="523" fill="#c8d4e5" font-size="14" font-family="Helvetica, Arial, sans-serif">Loss Aversion</text>
  <rect x="650" y="540" width="16" height="16" fill="#eab308" />
  <text x="675" y="553" fill="#c8d4e5" font-size="14" font-family="Helvetica, Arial, sans-serif">Overconfidence</text>

  <text x="645" y="600" fill="#9fb1c8" font-size="13" font-family="Helvetica, Arial, sans-serif">
    This preview is illustrative and included for product documentation.
  </text>
</svg>
